<?xml version="1.0" encoding="utf-8"?>
<!-- Generator: Adobe Illustrator 27.3.1, SVG Export Plug-In . SVG Version: 6.00 Build 0)  -->
<svg version="1.1" xmlns="http://www.w3.org/2000/svg" xmlns:xlink="http://www.w3.org/1999/xlink" x="0px" y="0px"
	 viewBox="0 0 1000 293.16422" style="enable-background:new 0 0 1000 293.16422;" xml:space="preserve">
<style type="text/css">
	.st0{fill:#0A446C;}
</style>
<g id="Layer_1">
</g>
<g id="Layer_2">
	<g>
		<path class="st0" d="M540.9054,119.05146c-17.40186-6.40066-28.91608-11.34951-36.46118-14.97686
			c-7.89874-3.79762-11.43381-13.08835-8.03726-21.16777l27.13681-64.55306l26.29053,70.93483h68.45459
			c-2.95038-26.06067-11.61597-43.40345-11.76733-43.70501C588.15033,18.10308,556.84869,0,521.31177,0h-0.00024
			c-51.64127,0-93.50497,41.86372-93.50497,93.505v2.23222c0,0,2.48022,47.12453,43.65219,64.98226
			c32.13797,13.93922,57.32428,20.02042,75.08728,28.38783c7.77667,3.66344,11.20227,12.88901,8.03558,20.88075l-26.07739,65.81448
			l-26.2905-69.94273l-66.96646,0.9921c0,0,0.87076,25.26163,10.49426,41.77023
			c18.46082,26.89388,49.41367,44.54207,84.49866,44.54207c51.64154,0,93.50525-41.86371,93.50525-93.50523v-2.72801
			C615.80865,141.86966,584.06158,134.92499,540.9054,119.05146z M525.52795,163.19971c-9.04077,0-16.3696-7.32881-16.3696-16.36957
			s7.32883-16.36958,16.3696-16.36958s16.36957,7.32883,16.36957,16.36958S534.56873,163.19971,525.52795,163.19971z"/>
		<g>
			<path class="st0" d="M49.9007,204.72533c-7.3927,0-14.15786-0.73851-20.29165-2.20787
				c-6.1338-1.47318-11.64771-3.36345-16.55321-5.66696C8.15799,194.54697,3.80349,192.02917,0,189.29709l11.57118-16.47285
				c2.94636,2.08923,6.25242,4.01776,9.92581,5.78558c3.66574,1.76782,7.83274,3.20273,12.49335,4.30093
				c4.66061,1.09819,9.96407,1.64537,15.91037,1.64537c5.62488,0,10.79441-0.88391,15.50859-2.65173
				c5.73202-2.19638,8.59803-5.30345,8.59803-9.32123c-0.32142-5.62488-7.47305-10.66048-21.45489-15.10681l-16.23179-5.2231
				c-4.76775-1.49997-9.16051-3.06499-13.17829-4.69888s-7.75238-3.66956-11.21149-6.10701
				c-3.45146-2.43745-6.29451-5.65166-8.51767-9.64265c-2.22317-3.99098-3.33284-8.31869-3.33284-12.9793
				c0-5.08918,1.33926-9.7651,4.01777-14.0201c2.67851-4.26266,6.11849-7.68734,10.32758-10.28549
				c4.20144-2.59816,8.86205-4.47312,13.98184-5.62488c5.11213-1.15176,10.64518-1.72956,16.59148-1.72956
				c9.16051,0,17.4486,1.30099,24.87191,3.89532c7.41566,2.60199,13.53797,6.01517,18.3593,10.24723l-13.17829,15.26752
				c-1.49996-1.39283-3.74992-2.78565-6.74985-4.17848c-2.99994-1.39282-6.50879-2.58285-10.52656-3.5739
				s-8.2766-1.48849-12.77651-1.48849c-4.55347,0-8.51767,0.40177-11.8926,1.20533
				c-8.57124,2.19638-12.85686,5.62488-12.85686,10.28549c0.21428,4.01777,4.31241,7.60697,12.29438,10.76762
				c2.57137,0.96426,5.91951,2.11603,10.04443,3.45529l16.15144,5.30345c9.10694,2.62494,16.98177,6.42844,23.62449,11.41046
				c3.4285,2.62495,6.24094,5.91953,8.43732,9.88371c2.19638,3.9642,3.29457,8.27661,3.29457,12.93723
				c0,5.99988-1.87496,11.43726-5.62488,16.31215c-3.74992,4.87489-8.94624,8.73195-15.58895,11.57118
				C66.23963,203.30571,58.57909,204.72533,49.9007,204.72533z"/>
			<path class="st0" d="M212.54004,203.03786h-22.1781l-12.21402-26.8387h-45.32043l-12.29438,26.8387H98.35501l52.0703-114.18502
				h10.04443L212.54004,203.03786z M168.90706,156.02995l-13.41936-29.57079l-13.49971,29.57079H168.90706z"/>
			<path class="st0" d="M309.77008,203.03786h-85.65887V88.85284h20.1692v94.01582h65.48967V203.03786z"/>
			<path class="st0" d="M363.12607,203.03786H342.8765v-93.53368l-1.36606-0.16071h-39.29376l-1.28571,0.16071V89.17426h104.14059
				v20.00849l-1.92853,0.16071h-40.01697V203.03786z"/>
		</g>
		<g>
			<path class="st0" d="M699.95294,204.72914c-7.87482,0-15.36322-1.31247-22.46124-3.93741
				c-7.09808-2.62494-13.39258-6.50879-18.8797-11.65154c-5.49481-5.14275-9.7804-11.41046-12.85687-18.80316
				c-3.08411-7.3927-4.62238-15.53537-4.62238-24.42804c0-8.8391,1.53827-16.95499,4.62238-24.34769
				c3.07648-7.3927,7.36206-13.6719,12.85687-18.84143c5.48712-5.16953,11.78162-9.05338,18.8797-11.65536
				c7.09802-2.59433,14.58643-3.89532,22.46124-3.89532c7.82123,0,15.29431,1.30099,22.41913,3.89532
				c7.12488,2.60198,13.43085,6.48582,18.92181,11.65536s9.76508,11.44873,12.8186,18.84143
				c3.05347,7.3927,4.58026,15.50859,4.58026,24.34769c0,8.89267-1.52679,17.03534-4.58026,24.42804
				c-3.05353,7.3927-7.32764,13.66042-12.8186,18.80316s-11.79694,9.0266-18.92181,11.65154
				C715.24725,203.41667,707.77417,204.72914,699.95294,204.72914z M699.95294,184.55994
				c11.19617,0,20.35669-3.34813,27.48157-10.04442c7.39264-6.85699,11.08899-16.3925,11.08899-28.60652
				c0-12.16045-3.69635-21.66917-11.08899-28.52617c-7.12488-6.69628-16.2854-10.04443-27.48157-10.04443
				c-11.24976,0-20.43707,3.34814-27.56189,10.04443c-7.3927,6.85699-11.08905,16.36572-11.08905,28.52617
				c0,12.21402,3.69635,21.74953,11.08905,28.60652C679.51587,181.21181,688.70319,184.55994,699.95294,184.55994z"/>
			<path class="st0" d="M877.29346,203.04169h-13.41553l-68.86456-76.49834v76.49834h-20.16919V88.85666h13.41937l68.86456,76.49834
				V88.85666h20.16534V203.04169z"/>
			<path class="st0" d="M956.52393,204.72914c-9.21411,0-17.70117-1.36603-25.46887-4.09811s-14.5022-6.73456-20.2113-12.01505
				c-5.70142-5.27284-10.05591-11.58266-13.05585-18.92178c-2.99988-7.33913-4.49988-15.26753-4.49988-23.7852
				c0-8.4641,1.5-16.36572,4.49988-23.70484c2.99994-7.33913,7.35443-13.66042,13.05585-18.96387
				c5.70911-5.30346,12.4436-9.30592,20.2113-12.01505c7.7677-2.70148,16.25476-4.05604,25.46887-4.05604
				c7.3927,0,14.80066,1.12498,22.224,3.37492c7.41565,2.24995,14.5022,5.70524,21.25208,10.36585l-11.57117,16.55321
				c-9.74982-6.74985-20.38733-10.12478-31.90491-10.12478c-13.82117,0-24.50458,3.56242-32.05798,10.68727
				c-7.33917,6.69628-11.01251,15.99073-11.01251,27.88332s3.67334,21.21382,11.01251,27.96368
				c7.55341,7.12483,18.23682,10.68726,32.05798,10.68726c8.03552,0,15.80322-1.71425,23.30304-5.14275v-20.57097h-40.33838V138.677
				H1000l-0.08417,52.39172c-5.41058,3.85707-11.80078,7.09807-19.16284,9.72301
				C973.38324,203.41667,965.30945,204.72914,956.52393,204.72914z"/>
		</g>
	</g>
</g>
</svg>
