<?xml version="1.0" encoding="utf-8"?>
<!-- Generator: Adobe Illustrator 27.3.1, SVG Export Plug-In . SVG Version: 6.00 Build 0)  -->
<svg version="1.1" xmlns="http://www.w3.org/2000/svg" xmlns:xlink="http://www.w3.org/1999/xlink" x="0px" y="0px"
	 viewBox="0 0 1000 499.11258" style="enable-background:new 0 0 1000 499.11258;" xml:space="preserve">
<style type="text/css">
	.st0{fill:#0A446C;}
</style>
<g id="Layer_1">
</g>
<g id="Layer_2">
	<path class="st0" d="M192.55106,202.68532c-29.62674-10.89714-49.22971-19.32257-62.07527-25.49814
		c-13.44761-6.46545-19.46607-22.28293-13.68349-36.03816l46.20049-109.9017l44.75967,120.76667h116.54405
		c-5.02301-44.36835-19.77618-73.89445-20.03391-74.40785C272.9856,30.82052,219.69452,0,159.19284,0h-0.00041
		C71.27305,0,0,71.27305,0,159.19243v3.80035c0,0,4.22261,80.2296,74.31795,110.6324
		c54.71498,23.73157,97.59468,34.08478,127.83624,48.33032c13.23978,6.23703,19.07185,21.94357,13.6806,35.54953L171.438,469.55432
		l-44.75968-119.07764l-114.01049,1.68906c0,0,1.48245,43.00793,17.86651,71.11386
		c31.42959,45.7869,84.12686,75.83298,143.85907,75.83298c87.91978,0,159.19283-71.27304,159.19283-159.19284v-4.64444
		C320.07388,241.53334,266.02448,229.71002,192.55106,202.68532z M166.37086,277.84778
		c-15.39191,0-27.86923-12.47733-27.86923-27.86922c0-15.39192,12.47733-27.86923,27.86923-27.86923
		s27.86923,12.47731,27.86923,27.86923C194.2401,265.37045,181.76277,277.84778,166.37086,277.84778z"/>
	<g>
		<path class="st0" d="M612.69421,253.23129h-44.6145l-24.57031-53.99004h-91.16882l-24.73196,53.99004h-44.6145L487.73795,23.53116
			h20.20914L612.69421,253.23129z M524.92328,158.66789l-26.99829-59.48602l-27.15668,59.48602H524.92328z"/>
		<path class="st0" d="M808.28687,253.23129h-172.3089V23.53116h40.57007v189.12677h131.73883V253.23129z"/>
		<path class="st0" d="M915.62036,253.23129h-40.73499V65.07439l-2.74469-0.3233H793.0921l-2.58636,0.3233V24.17775H1000V64.4278
			l-3.87952,0.3233h-80.50012V253.23129z"/>
	</g>
	<g>
		<path class="st0" d="M471.58646,489.22903c-13.83237,0-26.98514-2.30594-39.45502-6.91782
			c-12.46991-4.60858-23.52786-11.43405-33.17389-20.46976c-9.64603-9.03244-17.17416-20.04422-22.58438-33.03204
			c-5.41351-12.98453-8.11862-27.2886-8.11862-42.91229c0-15.52798,2.70511-29.78589,8.11862-42.77371
			c5.41022-12.98782,12.93835-24.01941,22.58438-33.10132s20.70398-15.90405,33.17389-20.46976
			c12.46988-4.56241,25.62265-6.84525,39.45502-6.84525c13.73996,0,26.86966,2.28284,39.38574,6.84525
			c12.51608,4.5657,23.59714,11.38785,33.24313,20.46976c9.64606,9.08191,17.15436,20.11349,22.51843,33.10132
			c5.36401,12.98782,8.04272,27.24573,8.04272,42.77371c0,15.62369-2.67871,29.92776-8.04272,42.91229
			c-5.36407,12.98782-12.87238,23.9996-22.51843,33.03204c-9.646,9.03571-20.72705,15.86118-33.24313,20.46976
			C498.45612,486.9231,485.32642,489.22903,471.58646,489.22903z M471.58646,453.79541
			c19.66812,0,35.76352-5.87866,48.27963-17.6459c12.98779-12.04434,19.48004-28.79623,19.48004-50.25238
			c0-21.36377-6.49225-38.06616-19.48004-50.1138c-12.51611-11.76392-28.61151-17.6459-48.27963-17.6459
			c-19.7605,0-35.9021,5.88199-48.41818,17.6459c-12.98782,12.04764-19.4801,28.75003-19.4801,50.1138
			c0,21.45615,6.49228,38.20804,19.4801,50.25238C435.68436,447.91675,451.82596,453.79541,471.58646,453.79541z"/>
		<path class="st0" d="M783.13593,486.26331h-23.57404L638.58411,351.87543v134.38788h-35.43036V285.66953h23.57404
			L747.70563,420.0574V285.66953h35.4303V486.26331z"/>
		<path class="st0" d="M922.32373,489.22903c-16.18445,0-31.10217-2.40161-44.74646-7.19821
			c-13.65088-4.79993-25.48083-11.83652-35.50293-21.10648c-10.02209-9.26663-17.66895-20.34769-22.94061-33.24316
			c-5.27167-12.89215-7.90424-26.82016-7.90424-41.78406c0-14.86819,2.63257-28.75003,7.90424-41.64218
			s12.91852-23.9996,22.94061-33.31573s21.85205-16.35272,35.50293-21.10318c13.64429-4.75372,28.56201-7.12894,44.74646-7.12894
			c12.99115,0,25.99548,1.97604,39.03278,5.92816c13.0307,3.95209,25.48083,10.02209,37.3371,18.20999l-20.32788,29.07993
			c-17.12799-11.85959-35.8064-17.78775-56.04199-17.78775c-24.27997,0-43.05078,6.26135-56.32562,18.77414
			c-12.89215,11.76721-19.33826,28.09357-19.33826,48.98557c0,20.89203,6.44611,37.26785,19.33826,49.12415
			c13.27484,12.51608,32.04565,18.77414,56.32562,18.77414c14.11938,0,27.76367-3.00861,40.93958-9.03244v-36.13962H892.396
			v-35.43033H998.6936l-0.13855,92.03641c-9.50745,6.77597-20.73035,12.47321-33.6687,17.08179
			C951.948,486.9231,937.7561,489.22903,922.32373,489.22903z"/>
	</g>
</g>
</svg>
